# xmcd CD database file
#
# Track frame offsets:
#	150
#	9568
#	26417
#	44878
#	65622
#	78579
#	88475
#	101736
#	118440
#	129738
#	139809
#	158446
#	175857
#	188895
#	209035
#	220511
#	241654
#
# Disc length: 3787 seconds
#
# Revision: 0
# Processed by: cddbd v1.5.1PL0 Copyright (c) Steve Scherf et al.
# Submitted via: CDex 1.51
#
DISCID=fb0ec911
DTITLE=Ryan Adams And The Cardinals - Jacksonville City Nights
DYEAR=2005
DGENRE=Rock
TTITLE0=A Kiss Before I Go
TTITLE1=The End
TTITLE2=Hard Way To Fall
TTITLE3=Dear John
TTITLE4=The Hardest Part
TTITLE5=Games
TTITLE6=Silver Bullets
TTITLE7=Peaceful Valley
TTITLE8=September
TTITLE9=My Heart Is Broken
TTITLE10=Trains
TTITLE11=PA
TTITLE12=Withering Heights
TTITLE13=Don't Fail Me Now
TTITLE14=Jeane
TTITLE15=Always On My Mind
TTITLE16=What Sin Replaces Love
EXTD=YEAR: 2005
EXTT0=
EXTT1=
EXTT2=
EXTT3=
EXTT4=
EXTT5=
EXTT6=
EXTT7=
EXTT8=
EXTT9=
EXTT10=
EXTT11=
EXTT12=
EXTT13=
EXTT14=
EXTT15=
EXTT16=
PLAYORDER=
